<svg id="图层_1" data-name="图层 1" xmlns="http://www.w3.org/2000/svg" xmlns:xlink="http://www.w3.org/1999/xlink" viewBox="0 0 566.9 566.9"><defs><style>.cls-1{fill:none;}.cls-2{fill:#f7f8f8;}.cls-3{clip-path:url(#clip-path);}</style><clipPath id="clip-path"><rect class="cls-1" x="74.21" y="75.6" width="419.71" height="419.71" rx="37.91"/></clipPath></defs><rect class="cls-2" x="74.21" y="73.6" width="419.71" height="419.71" rx="37.91"/><g class="cls-3"><path d="M546.45,269.6c-6.69,0-13.37,0-20.05,0-3,0-6-.15-9.07-.15-2.76,0-5.62-.29-8.25.27a15.22,15.22,0,0,1-9.37-.49,10.09,10.09,0,0,0-9.79.84,5.1,5.1,0,0,1-5.91-.16c-.88-.61-1.85-1.1-2.73-1.69-2.37-1.59-4.61-1.18-6.68.41a23.26,23.26,0,0,0-3.55,3.23c-1.22,1.42-1.9,1.31-3-.16A35.85,35.85,0,0,0,463,266c-2-1.75-3.49-1.59-5.09.46a70.21,70.21,0,0,0-4.13,6.52c-.54.87-1,1.77-1.86,3.15a27.24,27.24,0,0,1-1.6-3c-.71-1.88-1.14-3.85-2-5.66a23.15,23.15,0,0,0-3.46-5.55c-1.42-1.57-3.35-1.34-4.09.33-1.48,3.33-2.79,6.73-4,10.16-.82,2.33-1.35,4.75-2,7.13h-1c-.37-1.44-.79-2.87-1.12-4.32-1.35-5.76-2.59-11.55-4.05-17.29-.38-1.47-1.38-3.29-3.37-2.8a4.84,4.84,0,0,0-2.91,3c-1.23,4.68-2.1,9.43-3,14.17-.86,4.28-1.63,8.57-2.45,12.86a3.63,3.63,0,0,1-1.26-2.25c-.85-6.32-1.59-12.65-2.48-19-.71-5-1.45-10-2.5-15-.25-1.16-1.84-2.09-2.81-3.13-.94,1-2.33,1.81-2.71,2.93a30.62,30.62,0,0,0-1.12,6.34c-1.45,11.67-2.86,23.34-4.3,35a23.78,23.78,0,0,1-.56,2.47,2.39,2.39,0,0,1-1-1.73c-.73-7.64-1.49-15.28-2.13-22.93-.61-7.36-1-14.73-1.67-22.08a83,83,0,0,0-1.65-10.48c-.22-1-1.56-1.73-2.38-2.58-.79.79-1.9,1.47-2.3,2.4a15.07,15.07,0,0,0-1,4.5c-.95,10.48-1.88,21-2.73,31.45-.71,8.81-1.28,17.62-2,26.43-.15,1.85-.48,3.68-.72,5.52-.65-.33-.76-.61-.78-.9-.78-11.26-1.64-22.52-2.33-33.79-.83-13.58-1.48-27.17-2.31-40.75a61.2,61.2,0,0,0-1.3-9.13c-.19-.91-1.42-1.64-2.18-2.44-.72.76-1.76,1.42-2.1,2.3a14.24,14.24,0,0,0-.81,4.3c-1.08,16.25-2.19,32.5-3.15,48.76-.68,11.51-1.1,23-1.71,34.53-.17,3.27-.56,6.52-.85,9.78a29.35,29.35,0,0,1-1.17-6.85q-1-20.6-1.95-41.19c-.29-6.37-.52-12.75-.8-19.12-.59-13.67-1.15-27.34-1.82-41a56.27,56.27,0,0,0-1.15-8.45c-.17-.79-1.3-1.42-2-2.13-.7.66-1.73,1.22-2,2a40.65,40.65,0,0,0-.84,4.29c-.34,1.34-.91,2.62-1.48,4.22a15.55,15.55,0,0,1,.47,3.11c0,2.07-.42,4.13-.48,6.2-.53,18.89-.91,37.79-1.58,56.68-.63,17.59-1.55,35.17-2.36,52.75a12,12,0,0,1-.32,1.67h-.62c-.18-2-.44-4-.52-6q-1.44-37.53-2.83-75.07-1.2-31.2-2.52-62.4a24.37,24.37,0,0,0-.83-5.23,2.33,2.33,0,0,0-1.69-1.38,2.46,2.46,0,0,0-1.74,1.3,8.67,8.67,0,0,0-.72,3.13c-.6,10.12-1.31,20.24-1.66,30.37-.72,20.57-1.2,41.14-1.84,61.71q-.9,29-1.94,58.08c-.11,3.17-.46,6.34-.71,9.51l-.95,0c0-3.27.1-6.55,0-9.82-.7-21.12-1.49-42.23-2.16-63.35-.68-21.81-1.16-43.62-1.91-65.43-.44-12.82-1.19-25.64-1.89-38.45-.08-1.48.29-3.81-2.2-3.74s-2,2.34-2.1,3.84c-.8,15.11-1.69,30.22-2.23,45.34-.72,20.2-1.2,40.41-1.69,60.61-.31,12.68-.38,25.36-.65,38-.24,10.91-.58,21.81-.94,32.71-.14,4.17-.46,8.34-.7,12.51a1.9,1.9,0,0,1-.7-1.45c-.27-7.36-.55-14.71-.77-22.07q-.94-31.56-1.83-63.12-.9-32-1.74-64c-.35-12.6-.64-25.2-1.1-37.8-.17-4.52-.65-9-1.22-13.54-.11-.88-1.3-1.65-2-2.46-.61.81-1.63,1.59-1.74,2.46-.49,3.81-.84,7.64-1,11.47-.64,15.27-1.34,30.53-1.74,45.8-.59,22.34-.87,44.69-1.39,67-.45,19.58-1.07,39.17-1.57,58.75-.2,8.06-.27,16.12-.43,24.18,0,1.12-.22,2.23-.33,3.35a4.57,4.57,0,0,1-.54-2.25c-.33-9.89-.68-19.79-1-29.69q-.94-32.24-1.84-64.48c-.38-14-.68-28-1-41.95-.13-5.76-.13-11.52-.29-17.27-.37-13-.74-26-1.25-38.93-.24-6.29-.73-12.58-1.25-18.86-.11-1.46.43-3.84-2.1-3.78s-2.15,2.52-2.27,4c-.71,9-1.46,17.94-1.79,26.92-.47,12.43-.61,24.86-.86,37.29-.45,22.74-.84,45.48-1.31,68.21q-.69,32.71-1.5,65.42c-.17,6.5-.61,13-.92,19.47a4.06,4.06,0,0,1-.51-2q-.46-16.34-.92-32.68c-.55-21.2-1.05-42.4-1.62-63.6-.6-21.73-1.28-43.46-1.88-65.2-.41-15.21-.73-30.42-1.15-45.64a35.1,35.1,0,0,0-.79-6.86c-.21-.94-1.34-1.71-2.05-2.55-.71.84-1.83,1.59-2,2.52a38.68,38.68,0,0,0-.8,6.87c-.69,17.41-1.48,34.83-1.95,52.25-.65,23.95-1,47.91-1.58,71.86-.43,17.81-1.07,35.62-1.54,53.43-.23,8.82-.29,17.65-.43,26.48,0,.75-.1,1.5-.15,2.26H258c-.26-10.42-.49-20.85-.79-31.28q-.93-33.18-1.92-66.35c-.59-20.74-1.13-41.47-1.77-62.21-.44-14.44-1-28.88-1.52-43.32,0-.46.11-1-.13-1.36a23.28,23.28,0,0,0-1.94-2.18c-.73.74-1.85,1.38-2.1,2.23a23.4,23.4,0,0,0-.81,5.47c-.79,15.42-1.79,30.83-2.24,46.26-.89,30.26-1.41,60.54-2.17,90.8-.4,16-1,31.94-1.47,47.91,0,.84-.2,1.67-.31,2.51l-.73-.08c0-1.06,0-2.12,0-3.17q-.24-9.56-.51-19.1c-.59-20.65-1.14-41.31-1.8-62q-1-31.78-2.26-63.57c-.4-10.45-1-20.88-1.5-31.32-.06-1.2,0-2.37-1.86-2.41s-1.77,1.11-1.85,2.19c-.9,12.09-2.1,24.17-2.6,36.28-1,23.94-1.59,47.9-2.33,71.85-.52,16.9-1,33.81-1.5,50.71-.1,3.24-.37,6.48-.56,9.73a111,111,0,0,1-1.14-13.32c-.66-20.27-1.2-40.54-1.92-60.81q-.94-26-2.22-52.07c-.42-8.35-1.25-16.68-1.9-25-.08-1-.15-2-1.81-1.94s-1.69,1-1.78,2c-.38,3.91-.63,7.82-1.12,11.71a31.29,31.29,0,0,1-1.21,4.61c.95,6-.84,11.54-.65,17.13s-.18,11.37-.37,17.05-.47,11.37-.69,17-.4,11.19-.61,16.78-.47,11.37-.64,17-.17,11.38-.4,17.06-.63,11.15-1,16.72h-.72c-.12-1.05-.32-2.1-.36-3.16-.79-18.72-1.48-37.44-2.35-56.16-.7-15-1.56-29.94-2.5-44.9a100.79,100.79,0,0,0-1.77-12.55c-.26-1.33-1.48-2.5-2.26-3.75l-.93.26c-.11,1.4-.24,2.8-.34,4.2-1.5,20.54-3.12,41.08-4.42,61.64-.73,11.5-.91,23-1.4,34.54-.1,2.2-.5,4.39-.77,6.58-.62-.36-.72-.66-.73-.95-.65-13.36-1.19-26.71-2-40.06-.56-9.66-1.33-19.32-2.17-29-.42-4.74-1.11-9.47-1.95-14.17-.19-1-1.48-2.57-2.42-2.67-1.8-.19-2,1.51-2.12,2.83-1.41,14.38-2.92,28.75-4.16,43.14-.78,9-1.13,18.1-1.69,27.15a7.19,7.19,0,0,1-.36,1.34,9.62,9.62,0,0,1-1.15-3.84c-.84-10.72-1.46-21.45-2.48-32.16-.69-7.26-1.83-14.48-3-21.7-.15-.94-1.58-1.71-2.41-2.56-.83.87-1.71,1.7-2.47,2.61-.22.27-.14.74-.19,1.12q-2.64,21.51-5.3,43a22.29,22.29,0,0,1-.76,2.94,2.05,2.05,0,0,1-.8-1.41c-1-8.07-1.92-16.16-3.06-24.21a82.24,82.24,0,0,0-2.33-10.83,3.92,3.92,0,0,0-2.67-2.21c-.66-.11-2.06,1.22-2.39,2.12a58.29,58.29,0,0,0-2.3,8.24c-1,5.12-1.84,10.28-2.79,15.42-.32,1.74-.77,3.45-1.16,5.18h-.73a12,12,0,0,1-.69-1.83c-1-4.74-1.91-9.5-3-14.21a25.66,25.66,0,0,0-2.2-6.09c-1.11-2.08-3.48-2.08-4.76-.07a18.23,18.23,0,0,0-1.77,4.28c-1.18,3.67-2.23,7.37-3.41,11a18.88,18.88,0,0,1-1.65,2.88c-.86-2-1.48-3.32-2-4.66-.87-2.23-1.6-4.52-2.55-6.72-.69-1.61-1.84-3.48-3.9-3-1.51.35-2.93,1.85-3.89,3.14a59,59,0,0,0-3.34,5.91c-1,1.83-2,1.86-3.27.18-.84-1.15-1.66-2.3-2.53-3.43-2.87-3.75-5.78-3.86-9-.35-2.94,3.25-4.67,3.57-8.33,1a7.91,7.91,0,0,0-9.18-.41c-2.88,1.73-5.5,1.58-8.38.49a14.76,14.76,0,0,0-9.18-.33,16.14,16.14,0,0,1-6.22.63A64.45,64.45,0,0,0,33,269.57c-9,.27-18.11,0-27.16,0v2.77c1.69,0,3.37.09,5.06.08,9-.07,17.91-.18,26.86-.22,1.42,0,2.85.32,4.28.37,2.85.11,5.9.73,8.53.05a21.1,21.1,0,0,1,11.61.49,10.56,10.56,0,0,0,7-.39c3.31-1.8,5.75-1.75,8.74.34,3.93,2.76,5.68,2.54,9.3-.51a21.19,21.19,0,0,0,2.41-2.32c1.11-1.3,1.78-1.17,2.83.18a49.7,49.7,0,0,0,5.46,6,2.71,2.71,0,0,0,4.34-.37c1.61-2.22,3-4.54,4.52-6.83.59-.91,1.07-1.87,1.95-3.42.82,1.73,1.35,2.67,1.73,3.66.88,2.31,1.55,4.69,2.57,6.94a12.14,12.14,0,0,0,2.66,3.85c1.67,1.56,3.49,1.2,4.33-.82,1.49-3.58,2.83-7.21,4.1-10.86.7-2,1.13-4,1.69-6.07l.66,0a12.56,12.56,0,0,1,.83,2c.77,3.68,1.34,7.41,2.26,11.07a83.41,83.41,0,0,0,3.13,9.93,3.56,3.56,0,0,0,2.74,1.51c.78,0,1.82-1,2.27-1.79a13.22,13.22,0,0,0,1.56-4.12c1.3-6.79,2.46-13.61,3.69-20.41.23-1.24.59-2.46.88-3.69l.64,0c.31,1.46.72,2.92.91,4.4,1,7.93,1.91,15.87,3,23.8a49,49,0,0,0,1.66,8.14,4.57,4.57,0,0,0,2.74,2.78c2,.38,2.51-1.44,2.94-2.85a21.31,21.31,0,0,0,.73-3.62c1.34-11.22,2.65-22.43,4-33.65.26-2.15.64-4.3,1-6.44a4.75,4.75,0,0,1,1.23,2.81c1,11.78,1.88,23.57,3,35.35.59,6.35,1.41,12.68,2.37,19,.15,1,1.61,1.86,2.47,2.79.81-.9,2-1.7,2.34-2.73a27,27,0,0,0,1.1-6.12c1.28-15.85,2.47-31.71,3.73-47.56.36-4.57.85-9.13,1.28-13.69h.8c.12.95.29,1.89.35,2.84.92,14.33,1.8,28.66,2.74,43q1.19,18.18,2.49,36.35a9,9,0,0,0,.89,3.33,1.88,1.88,0,0,0,3.48,0,6.08,6.08,0,0,0,.72-2.19c.52-4.19,1.17-8.39,1.41-12.61.78-13.94,1.32-27.9,2.1-41.85.75-13.43,1.68-26.85,2.54-40.27a10.33,10.33,0,0,1,.33-1.52,187.91,187.91,0,0,1,1.68,18.92q1.27,28,2.42,56c.47,11.13.85,22.27,1.41,33.39a49.17,49.17,0,0,0,1.32,8.42c.18.76,1.36,1.32,2.08,2,.62-.65,1.57-1.22,1.81-2,.51-1.61.56-3.34,1-5a21.51,21.51,0,0,1,1.17-3,34.5,34.5,0,0,1-.45-3.64c0-.91.34-1.82.37-2.73.92-27.34,1.78-54.68,2.74-82,.38-10.6,1-21.19,1.54-31.78a4.83,4.83,0,0,1,.33-1.13,47,47,0,0,1,1.16,9.2q1.05,25.32,2,50.64c.4,10.68.69,21.36,1.06,32,.52,15.28,1,30.55,1.66,45.81a93.16,93.16,0,0,0,1.22,10.77c.12.73,1.28,1.33,2,2,.61-.63,1.48-1.19,1.78-1.93a12,12,0,0,0,.69-3.62c.55-9,1.22-17.93,1.51-26.9.71-21.57,1.18-43.15,1.84-64.72.58-19.29,1.29-38.57,2-57.85.09-2.59.32-5.18.48-7.77h.8c.13,2.64.29,5.27.38,7.9.76,21.58,1.57,43.15,2.24,64.73s1.12,43.46,1.78,65.19c.34,11.29.91,22.58,1.43,33.87a33.85,33.85,0,0,0,.74,5.94c.17.74,1.16,1.32,1.78,2,.65-.59,1.53-1.08,1.91-1.79a6.48,6.48,0,0,0,.53-2.7c.73-15.1,1.63-30.2,2.11-45.31.67-21.27,1-42.55,1.51-63.82q.56-24.33,1.15-48.64c.11-4.6.31-9.2.49-13.8.26-6.32.55-12.63.82-18.95.85,8.13,1.18,16.24,1.42,24.36q1.15,38.13,2.25,76.27c.47,17,.78,34.08,1.24,51.12q.56,20.4,1.33,40.79a112.91,112.91,0,0,0,1.07,11.47c.11.82,1.26,1.52,1.94,2.27.66-.86,1.74-1.65,1.9-2.58a61.8,61.8,0,0,0,.76-8c.66-17.33,1.38-34.67,1.86-52,.58-20.81.93-41.62,1.4-62.44q.86-37.56,1.75-75.11c.11-5,0-9.94,0-14.9h.88c.07.75.18,1.5.21,2.26.49,15,1,29.94,1.45,44.92.51,17.35.93,34.71,1.39,52.06.62,23.73,1.18,47.45,1.86,71.17.41,14.21,1,28.42,1.52,42.63a22.41,22.41,0,0,0,.82,5,2.29,2.29,0,0,0,1.67,1.36,2.42,2.42,0,0,0,1.72-1.35,14.8,14.8,0,0,0,.66-3.86c.72-12.2,1.53-24.39,2-36.59.38-9,.32-17.95.51-26.93q.63-31.11,1.32-62.22c.47-19.58,1.07-39.16,1.55-58.75.17-7.29.12-14.59.25-21.88.05-2.23.39-4.46.59-6.7a4,4,0,0,1,.7,2.45q.39,14.61.76,29.23.88,32.72,1.76,65.44t1.75,65.41c.38,14.52.73,29,1.17,43.56a41.24,41.24,0,0,0,.86,7.09c.16.79,1.22,1.42,1.87,2.12.68-.66,1.81-1.24,2-2a47.54,47.54,0,0,0,1-7.77c.68-17.16,1.42-34.32,1.87-51.49.7-26.42,1.13-52.85,1.74-79.27q.8-34.45,1.73-68.9c.05-1.88.25-3.76.38-5.63a5.92,5.92,0,0,1,.52,2.53q.42,14,.83,28.09,1.08,38.7,2.15,77.41c.43,16.13.75,32.26,1.21,48.38.18,6.44.62,12.88.88,19.32.37,9.22.62,18.44,1.08,27.66,0,.91,1.14,1.78,1.75,2.67.78-.77,2-1.44,2.24-2.33a37.46,37.46,0,0,0,1-7.07c.74-15.41,1.57-30.81,2.07-46.22.68-20.65,1.09-41.3,1.6-62,.32-12.75.59-25.51.9-38.27q.3-12.42.64-24.85c.14-4.62.36-9.24.54-13.86a5,5,0,0,1,.91,2.88q.32,8.85.58,17.71c.63,21.34,1.19,42.68,1.89,64q1.15,35.69,2.53,71.37c.28,7.68.79,15.36,1.18,23,.05,1.1.33,2.22,1.77,1.92.78-.15,1.38-1.12,2-1.78.17-.2.08-.6.1-.91.86-12.39,2.07-24.77,2.52-37.17,1.11-30.87,1.85-61.75,2.77-92.63.27-9.3.61-18.59,1-27.89a25.75,25.75,0,0,1,.49-3.11l.79.06c.09.72.23,1.44.25,2.16.72,21.34,1.32,42.69,2.17,64,.9,22.55,2,45.09,3.09,67.62.16,3.3.54,6.6,1,9.87a2.88,2.88,0,0,0,1.7,2c1.67.4,1.82-1,1.93-2.05.41-3.82.66-7.66,1.16-11.48a35.93,35.93,0,0,1,1.3-4.87c-.54-8,.62-15.83.71-23.69s.42-15.83.69-23.74.63-15.95.92-23.93.52-15.82.8-23.73.61-15.8.92-23.69h.8c.21,2.67.52,5.33.63,8,.67,16.74,1.24,33.47,1.95,50.2.47,11,1,22,1.73,32.93.58,8.36,1.48,16.69,2.48,25,.2,1.63,1.51,3.14,2.31,4.7l1.12-.26.33-4.84c1.46-21.54,3-43.08,4.36-64.62.67-10.74,1-21.5,1.56-32.24a53.51,53.51,0,0,1,.78-5.31,1.42,1.42,0,0,1,.62,1.19c.81,14.64,1.58,29.28,2.44,43.92.5,8.67,1,17.34,1.75,26a135.19,135.19,0,0,0,2.06,13.68c.15.81,1.44,1.43,2.2,2.14.71-.82,2-1.61,2-2.48,1.85-20.67,3.59-41.34,5.34-62,.29-3.41.53-6.82.8-10.23l.74,0c.27,2.26.63,4.51.78,6.77.53,7.51.9,15,1.48,22.53q.65,8.27,1.68,16.52c.5,4,1.18,8.06,2.07,12,.22,1,1.56,1.74,2.38,2.61.87-.92,2.19-1.73,2.51-2.78a35.84,35.84,0,0,0,1-6.37q2.21-18,4.38-35.93l.54-4.42.89,0c.37,2.27.79,4.53,1.12,6.81,1.31,9.27,2.53,18.56,3.95,27.82.24,1.63.52,3.9,3,4,2.75.1,3-2.33,3.33-4C421,281.8,422,276,423.14,270.16c.65-3.27,1.42-6.51,2.14-9.77l.68,0a17.29,17.29,0,0,1,.85,2.34c.81,3.75,1.46,7.52,2.34,11.26a62.14,62.14,0,0,0,2.49,8.18,3.42,3.42,0,0,0,2.53,1.83c1,0,2-1.09,2.89-1.83a3.08,3.08,0,0,0,.71-1.46c1.1-3.69,2.12-7.39,3.29-11.07.48-1.52,1.25-3,1.88-4.44l.95.09c.59,1.55,1.15,3.13,1.79,4.67a54.71,54.71,0,0,0,3.18,7.22c1.52,2.54,4.25,2.53,6.1.15a35.47,35.47,0,0,0,1.92-3.48c1.14-1.91,2.36-3.78,3.84-6.15,1.64,2.07,2.92,3.64,4.14,5.25,2.93,3.86,5.81,4,9.11.46,3.08-3.32,4.71-3.61,8.47-.87a7.77,7.77,0,0,0,9.17.36,8.19,8.19,0,0,1,8.1-.52c3.14,1.26,6.19.91,9.43.4a59.74,59.74,0,0,1,9-.31c2.44,0,4.87.24,7.31.22,3.2,0,6.4-.26,9.6-.29,7.53-.06,15.05-.05,22.58-.07v-2.77Z"/></g><path class="cls-2" d="M357.85,237.18c-4.88-7.13-11.4-12.48-18.42-17.4s-14.23-9.57-19.64-16.24c-4.84-6-7.75-13.65-6-21.35a16.13,16.13,0,0,1,5.44-9c2.46-2,5.29-3.52,7.77-5.5,1.7-1.36,4-3.44,3.21-5.88-.48-1.56-1.76-1.81-3.22-2.06a18.88,18.88,0,0,0-4.69-.26,22.89,22.89,0,0,0-16.84,9.49,21.66,21.66,0,0,0-2.18,4.05c0,.1-.08.19-.11.28a.49.49,0,0,0-.06.23,46.69,46.69,0,0,0,2.44,30.25,45.38,45.38,0,0,0,8.34,12.85,62.79,62.79,0,0,0,12.76,10.07c9.59,6.06,19.67,11.39,25.82,21.34,5.77,9.33,7.91,20.61,7.12,31.48a75.88,75.88,0,0,1-5.66,23c.19-.83.34-1.66.46-2.5a78.87,78.87,0,0,0,.23-18,.5.5,0,0,0,0-.12s0,0,0,0a42,42,0,0,0-30.17-38.6c-5.87-1.73-11.8-1.86-17.86-1.49-6.9.41-14.29,1.19-20.56-2.32a.84.84,0,0,0-.23-.09l-.06,0c-8.06-3.08-18.84-7.57-19.55-17.63-.44-8.05-1-16.18-5-23.39-4.35-7.88-11.56-12.77-19.06-17.35a3.46,3.46,0,0,0-.22-.31c-1.12-3.44-2-7.09-4.09-10.1a17,17,0,0,0-8.44-6.7,1.36,1.36,0,0,0-.42-.07.91.91,0,0,0-.46.05,5.38,5.38,0,0,0-2.2,1.6,7.68,7.68,0,0,0-.95,1.33,21.56,21.56,0,0,0-6.69-.59l-.23,0h0a1,1,0,0,0-.87,1.09c.08,2.63-.05,5.26,0,7.9,0,2.4-.12,5.39-2.31,6.9-2.43,1.3-4.22,3.55-6,5.57a35.46,35.46,0,0,0-5.24,7.2,31.61,31.61,0,0,0-3.2,15.6,22.72,22.72,0,0,1-5,10.37,1.28,1.28,0,0,0-.32.93s0,0,0,.06c-1.84,6.8,2.85,12.78,8.29,16.23s12,6.31,18.38,5.19c-1.07,12.54,6.47,23.54,15.16,32,4.71,8.9,6.25,19,6.61,28.93.38,10.38-.24,20.82-.57,31.21L237.84,342c-1.5,1.88-3,4.46-1.23,6.69,1.26,1.59,3.55,1.89,5.45,1.84a85.31,85.31,0,0,0,8.6-.62c2.75-.35,5.58-1.85,5.73-4.94v-.07c1-10.72,3.09-21.26,5-31.86a38.68,38.68,0,0,0,11.32,12.59,35.41,35.41,0,0,0,18.58,6.23,16.28,16.28,0,0,1,3.18,5c.3.78,1.08,2.49.47,3.17s-2.24.87-3.07,1.2c-2.68,1.1-8.28,3.34-6.91,7.26,1.22,3.46,6.74,2.41,9.45,2.45,4.77.1,9.54.49,14.31.57a56.68,56.68,0,0,0,14.41-1.34,1.06,1.06,0,0,0,.63-.13s0,0,0,0l.57-.15a1,1,0,0,0,.73-.66c3.57-2.42,6.43-6.21,9.09-9.46A121.22,121.22,0,0,0,343,327.6c.44-.7.88-1.41,1.31-2.13a1.11,1.11,0,0,0,1.2-.23,72.31,72.31,0,0,0,22.23-42.07C370.08,267.33,367,250.5,357.85,237.18Z"/><path d="M310.2,353.77h-1.54c-2.52,0-5.06-.17-7.51-.29-2.24-.12-4.55-.23-6.81-.28-.45,0-1,0-1.58.05-3.13.15-8.37.4-9.91-4-2.05-5.85,5.3-8.86,8.06-10l.09,0a11.12,11.12,0,0,1,1.24-.39l.52-.15c-.09-.27-.2-.55-.26-.7l-.12-.3a13.78,13.78,0,0,0-2.18-3.7,37.47,37.47,0,0,1-18.79-6.56,39.53,39.53,0,0,1-8.85-8.58c-1.54,8.56-3.12,17.39-4,26.16v.05c-.18,3.7-3.18,6.46-7.65,7a88.23,88.23,0,0,1-8.83.64c-3.33.09-5.76-.82-7.23-2.68s-2.38-4.9,1.24-9.44l4.5-5.57.45-.55q.1-3.11.23-6.23c.3-7.91.61-16.1.32-24.09-.43-11.55-2.4-20.35-6.2-27.67-10.4-10.19-15.66-20.56-15.68-30.88-5.17.17-11-1.79-17.25-5.77-5.85-3.71-11.33-10.49-9.29-18.47a3.53,3.53,0,0,1,.86-2.06,20.65,20.65,0,0,0,4.48-9.11A33.93,33.93,0,0,1,202,193.8a37.79,37.79,0,0,1,5.56-7.66l.7-.79a22.23,22.23,0,0,1,5.79-5.19c1.2-.91,1.32-3,1.29-5,0-1.24,0-2.46,0-3.69,0-1.44,0-2.81,0-4.18a3.19,3.19,0,0,1,1.87-3.07l.29-.29h.71l.16,0h.16a23.28,23.28,0,0,1,5.87.33l.26-.3a7.4,7.4,0,0,1,3.16-2.26,3.1,3.1,0,0,1,1.32-.16,3.34,3.34,0,0,1,1.06.22,19,19,0,0,1,9.47,7.51,32.08,32.08,0,0,1,3.81,8.88c.13.41.25.82.38,1.22,7.31,4.49,14.75,9.61,19.29,17.83,4.06,7.37,4.8,15.38,5.28,24.34.58,8.18,9.4,12.33,17.76,15.54h.17l.35.19a3.11,3.11,0,0,1,.45.22c5.23,2.92,11.62,2.51,17.8,2.12l1.54-.09c5.12-.31,11.87-.41,18.61,1.57a45.81,45.81,0,0,1,15.79,8.38A44.56,44.56,0,0,1,356.8,280.8l.47.47c.07-.65.13-1.29.17-1.94.81-11.06-1.61-21.77-6.8-30.16-5.09-8.23-13-13.13-21.4-18.32-1.24-.76-2.49-1.53-3.72-2.31a64.77,64.77,0,0,1-13.2-10.44,47.65,47.65,0,0,1-8.75-13.47A49.1,49.1,0,0,1,301,173.1a3,3,0,0,1,.18-.64c0-.12.1-.24.16-.36a23.74,23.74,0,0,1,2.37-4.42,25,25,0,0,1,18.5-10.42,20.61,20.61,0,0,1,5.24.28c1.51.26,4.05.7,4.94,3.58,1.27,4.1-2.52,7.11-3.94,8.25s-2.64,1.92-3.95,2.79-2.63,1.75-3.81,2.71a13.82,13.82,0,0,0-4.68,7.82c-2,8.56,2.59,15.87,5.51,19.46,4.63,5.71,10.88,10,16.93,14.24l2.26,1.58c6.35,4.46,13.57,10.07,19,18h0c9,13.21,12.77,30.54,10.23,47.56A74.13,74.13,0,0,1,347,326.86a3.38,3.38,0,0,1-1.43.79l-.72,1.14a122.5,122.5,0,0,1-9,12.39l-.89,1.1c-2.34,2.9-5,6.16-8.22,8.48A3.32,3.32,0,0,1,325,352l-.44.11a3.23,3.23,0,0,1-1.16.28A56.43,56.43,0,0,1,310.2,353.77Zm-16-5h.21c2.33.05,4.68.16,6.95.28,2.42.12,4.92.25,7.36.29a54.31,54.31,0,0,0,13.85-1.28L323,348h0l.23-.06,0-.09.61-.41c2.89-2,5.33-5,7.7-7.91l.91-1.13a118.25,118.25,0,0,0,8.65-12c.45-.69.87-1.38,1.29-2.09l1-1.61,1.1.44a69.72,69.72,0,0,0,21.06-40.32c2.37-15.93-1.1-32.12-9.51-44.42h0c-5-7.3-11.84-12.61-17.87-16.84L335.91,220c-6.3-4.37-12.81-8.89-17.83-15.09-5.92-7.29-8.19-15.54-6.39-23.24a18.25,18.25,0,0,1,6.2-10.25c1.34-1.09,2.77-2,4.15-3s2.5-1.66,3.64-2.56c1.92-1.53,2.73-2.68,2.47-3.5-.06-.2-.09-.3-1.48-.54a16.74,16.74,0,0,0-4.16-.22,20.56,20.56,0,0,0-15.2,8.55,18.76,18.76,0,0,0-1.94,3.62l-.08.23a44.49,44.49,0,0,0,2.34,28.82,42.72,42.72,0,0,0,7.93,12.22,60.49,60.49,0,0,0,12.32,9.71c1.22.77,2.45,1.53,3.68,2.29,8.45,5.23,17.2,10.63,22.84,19.75s8.32,20.82,7.44,32.8A77.43,77.43,0,0,1,356,303.28l-4.2-1.31c.16-.72.3-1.49.43-2.35a75,75,0,0,0,.26-16.85l0,0,0-.51-.34-1,.27-.27a40.71,40.71,0,0,0-14.29-28.09,41.35,41.35,0,0,0-14.25-7.57c-4.8-1.41-9.92-1.83-17.1-1.4l-1.52.09c-6.43.41-13.71.87-20.05-2.57h0l-.2-.09c-7.53-2.88-20.1-7.7-20.93-19.52-.46-8.45-1.13-15.94-4.74-22.48-4.14-7.49-11-12.1-18.28-16.54l-.42-.26-.26-.4-.13-.18-.23-.3-.12-.37c-.2-.6-.39-1.21-.58-1.83a28.9,28.9,0,0,0-3.23-7.7A15,15,0,0,0,229,166a3.55,3.55,0,0,0-1,.84,6.11,6.11,0,0,0-.69.94l-.81,1.49-1.65-.41a19.47,19.47,0,0,0-5.08-.57c0,1.11,0,2.22,0,3.29s0,2.36,0,3.55c0,1.92.12,6.42-3.27,8.76l-.21.13a18.19,18.19,0,0,0-4.7,4.28l-.71.81a33.52,33.52,0,0,0-4.93,6.74A29.39,29.39,0,0,0,203,210.3v.26l-.06.27a24.93,24.93,0,0,1-5.27,11.09l.07.6-.32.32c-1.19,5.54,3,10.47,7.46,13.29,6.44,4.06,12.1,5.71,16.81,4.88l2.83-.5-.25,2.86c-.84,9.88,4,20.05,14.51,30.21l.25.24.16.31c4.23,8,6.41,17.48,6.87,29.87.29,8.16,0,16.43-.33,24.43-.08,2.32-.17,4.63-.25,6.94l0,.74-1.38,1.7-4.49,5.56c-2.18,2.74-1.49,3.61-1.23,3.94.56.69,1.86,1.05,3.67,1,3-.07,5.79-.28,8.38-.6.86-.11,3.66-.64,3.8-2.83v-.21c.88-9.17,2.53-18.32,4.13-27.16l.87-4.87,1.06-6,3,5.29a36.09,36.09,0,0,0,10.66,11.87,33.25,33.25,0,0,0,17.43,5.84l.91.05.61.66a18.39,18.39,0,0,1,3.61,5.75l.1.25c.49,1.24,1.41,3.56-.05,5.18a6.42,6.42,0,0,1-3.15,1.56,6.24,6.24,0,0,0-.74.21l-.08,0c-2.9,1.19-6.15,2.77-5.56,4.45.44,1.28,3.51,1.13,5.53,1C293.16,348.8,293.72,348.77,294.21,348.77Zm29.52-1h0Zm-30.31-9.34Zm63.52-55.84.06.87c.05-.36.1-.71.14-1.07ZM197.4,222.2h0Zm107.87-48.14,0,.08Zm-85.53-6.91h0Zm8.95-1.29.05,0Zm.62-.05-.05,0Z"/></svg>