<svg id="图层_1" data-name="图层 1" xmlns="http://www.w3.org/2000/svg" xmlns:xlink="http://www.w3.org/1999/xlink" viewBox="0 0 566.9 566.9"><defs><style>.cls-1{fill:none;}.cls-2{clip-path:url(#clip-path);}.cls-3{fill:#fff;}</style><clipPath id="clip-path"><rect class="cls-1" x="73.6" y="73.6" width="419.71" height="419.71" rx="37.91"/></clipPath></defs><g class="cls-2"><path d="M545.83,267.6c-6.68,0-13.36,0-20.05,0-3,0-6-.15-9.06-.15-2.76,0-5.62-.29-8.25.27a15.21,15.21,0,0,1-9.37-.49,10.09,10.09,0,0,0-9.79.84,5.12,5.12,0,0,1-5.92-.16c-.87-.61-1.84-1.1-2.72-1.69-2.37-1.59-4.61-1.18-6.68.41a23.26,23.26,0,0,0-3.55,3.23c-1.22,1.42-1.9,1.31-3-.16a36.35,36.35,0,0,0-5.07-5.68c-2-1.75-3.49-1.59-5.09.46a72.47,72.47,0,0,0-4.14,6.52c-.54.87-1,1.77-1.85,3.15a27.24,27.24,0,0,1-1.6-3c-.71-1.88-1.14-3.85-2-5.66a23.15,23.15,0,0,0-3.46-5.55c-1.43-1.57-3.35-1.34-4.09.33-1.48,3.33-2.79,6.73-4,10.16-.83,2.33-1.35,4.75-2,7.13h-1c-.38-1.44-.79-2.87-1.13-4.32-1.34-5.76-2.59-11.55-4-17.29-.38-1.47-1.38-3.29-3.38-2.8a4.85,4.85,0,0,0-2.9,3c-1.23,4.68-2.11,9.43-3.05,14.17-.86,4.28-1.64,8.57-2.45,12.86a3.63,3.63,0,0,1-1.26-2.25c-.85-6.32-1.59-12.65-2.48-19-.71-5-1.45-10-2.5-15-.25-1.16-1.84-2.09-2.81-3.13-.94,1-2.33,1.81-2.71,2.93a30.62,30.62,0,0,0-1.12,6.34c-1.45,11.67-2.86,23.34-4.3,35a23.78,23.78,0,0,1-.56,2.47,2.44,2.44,0,0,1-1-1.73c-.72-7.64-1.48-15.28-2.12-22.93-.61-7.36-1-14.73-1.67-22.08A83.06,83.06,0,0,0,392,233.34c-.21-1-1.55-1.73-2.37-2.58-.79.79-1.9,1.47-2.3,2.4a15.07,15.07,0,0,0-1,4.5c-1,10.48-1.88,21-2.73,31.45-.71,8.81-1.28,17.62-2,26.43-.14,1.85-.47,3.68-.71,5.52-.65-.33-.76-.61-.78-.9-.78-11.26-1.64-22.52-2.33-33.79-.83-13.58-1.48-27.17-2.31-40.75a61.2,61.2,0,0,0-1.3-9.13c-.19-.91-1.42-1.64-2.18-2.44-.72.76-1.76,1.42-2.1,2.3a14.24,14.24,0,0,0-.81,4.3c-1.09,16.25-2.19,32.5-3.15,48.76-.68,11.51-1.1,23-1.71,34.53-.17,3.27-.56,6.52-.86,9.78a29.86,29.86,0,0,1-1.16-6.85q-1-20.6-1.95-41.19c-.3-6.37-.52-12.75-.8-19.12-.59-13.67-1.15-27.34-1.83-41a53.8,53.8,0,0,0-1.15-8.45c-.16-.79-1.29-1.42-2-2.13-.7.66-1.73,1.22-2,2a40.65,40.65,0,0,0-.84,4.29c-.35,1.34-.91,2.62-1.48,4.22a15.55,15.55,0,0,1,.47,3.11c0,2.07-.42,4.13-.48,6.2-.54,18.89-.91,37.79-1.58,56.68-.63,17.59-1.56,35.17-2.36,52.75a12,12,0,0,1-.32,1.67h-.62c-.18-2-.45-4-.52-6q-1.44-37.53-2.83-75.07-1.2-31.2-2.52-62.4a25,25,0,0,0-.83-5.23,2.36,2.36,0,0,0-1.7-1.38,2.46,2.46,0,0,0-1.73,1.3,8.67,8.67,0,0,0-.72,3.13c-.6,10.12-1.31,20.24-1.67,30.37-.71,20.57-1.2,41.14-1.83,61.71q-.9,29-1.94,58.08c-.11,3.17-.47,6.34-.71,9.51l-.95,0c0-3.27.09-6.55,0-9.82-.7-21.12-1.49-42.23-2.16-63.35-.68-21.81-1.16-43.62-1.91-65.43-.44-12.82-1.19-25.64-1.89-38.45-.08-1.48.29-3.81-2.2-3.74s-2,2.34-2.1,3.84c-.8,15.11-1.69,30.22-2.23,45.34-.72,20.2-1.21,40.41-1.69,60.61-.31,12.68-.38,25.36-.65,38-.24,10.91-.58,21.81-.94,32.71-.14,4.17-.47,8.34-.71,12.51a1.92,1.92,0,0,1-.69-1.45c-.27-7.36-.55-14.71-.77-22.07q-.94-31.56-1.84-63.12-.88-32-1.74-64c-.34-12.6-.63-25.2-1.09-37.8-.17-4.52-.65-9-1.22-13.54-.11-.88-1.3-1.65-2-2.46-.61.81-1.63,1.59-1.74,2.46-.49,3.81-.85,7.64-1,11.47-.64,15.27-1.35,30.53-1.74,45.8-.59,22.34-.87,44.69-1.39,67-.45,19.58-1.07,39.17-1.57,58.75-.21,8.06-.27,16.12-.43,24.18,0,1.12-.22,2.23-.33,3.35a4.7,4.7,0,0,1-.55-2.25c-.33-9.89-.67-19.79-1-29.69q-1-32.24-1.84-64.48c-.38-14-.68-28-1-41.95-.13-5.76-.13-11.52-.29-17.27-.37-13-.74-26-1.25-38.93-.24-6.29-.73-12.58-1.25-18.86-.12-1.46.42-3.84-2.1-3.78s-2.15,2.52-2.27,4c-.72,9-1.46,17.94-1.8,26.92-.46,12.43-.61,24.86-.85,37.29-.45,22.74-.84,45.48-1.31,68.21q-.69,32.71-1.51,65.42c-.16,6.5-.6,13-.91,19.47a4.06,4.06,0,0,1-.51-2q-.46-16.34-.92-32.68c-.55-21.2-1-42.4-1.63-63.6-.59-21.73-1.27-43.46-1.87-65.2-.41-15.21-.73-30.42-1.15-45.64a35.88,35.88,0,0,0-.79-6.86c-.21-.94-1.34-1.71-2.06-2.55-.7.84-1.82,1.59-2,2.52a38.68,38.68,0,0,0-.8,6.87c-.69,17.41-1.48,34.83-1.95,52.25-.65,23.95-1,47.91-1.58,71.86-.43,17.81-1.07,35.62-1.54,53.43-.23,8.82-.29,17.65-.43,26.48,0,.75-.1,1.5-.15,2.26h-.64c-.26-10.42-.5-20.85-.79-31.28q-.93-33.18-1.92-66.35c-.59-20.74-1.14-41.47-1.77-62.21-.44-14.44-1-28.88-1.52-43.32,0-.46.11-1-.13-1.36a24.79,24.79,0,0,0-1.94-2.18c-.73.74-1.86,1.38-2.11,2.23a23.39,23.39,0,0,0-.8,5.47c-.8,15.42-1.8,30.83-2.25,46.26-.88,30.26-1.4,60.54-2.16,90.8-.4,16-1,31.94-1.47,47.91,0,.84-.2,1.67-.31,2.51l-.74-.08c0-1.06,0-2.12,0-3.17q-.24-9.56-.51-19.1c-.6-20.65-1.14-41.31-1.8-62q-1-31.78-2.26-63.57c-.4-10.45-1-20.88-1.5-31.32-.06-1.2,0-2.37-1.86-2.41s-1.78,1.11-1.86,2.19c-.89,12.09-2.09,24.17-2.59,36.28-1,23.94-1.59,47.9-2.33,71.85-.52,16.9-1,33.81-1.5,50.71-.1,3.24-.37,6.48-.56,9.73a109,109,0,0,1-1.14-13.32c-.66-20.27-1.2-40.54-1.92-60.81q-.94-26-2.22-52.07c-.42-8.35-1.25-16.68-1.91-25-.08-1-.15-2-1.8-1.94s-1.69,1-1.78,2c-.38,3.91-.63,7.82-1.12,11.71a31.2,31.2,0,0,1-1.22,4.61c1,6-.83,11.54-.64,17.13s-.19,11.37-.38,17.05-.46,11.37-.68,17-.4,11.19-.61,16.78-.47,11.37-.64,17-.17,11.38-.4,17.06-.64,11.15-1,16.72h-.72c-.13-1.05-.32-2.1-.36-3.16-.79-18.72-1.48-37.44-2.35-56.16q-1.06-22.46-2.5-44.9a100.79,100.79,0,0,0-1.77-12.55c-.26-1.33-1.48-2.5-2.26-3.75l-.93.26c-.12,1.4-.24,2.8-.35,4.2-1.49,20.54-3.11,41.08-4.41,61.64-.73,11.5-.91,23-1.4,34.54-.1,2.2-.51,4.39-.77,6.58-.62-.36-.72-.66-.73-.95-.65-13.36-1.2-26.71-2-40.06-.55-9.66-1.32-19.32-2.17-29-.41-4.74-1.1-9.47-1.94-14.17-.19-1-1.48-2.57-2.42-2.67-1.8-.19-2,1.51-2.13,2.83-1.4,14.38-2.91,28.75-4.15,43.14-.78,9-1.13,18.1-1.69,27.15a7.19,7.19,0,0,1-.36,1.34,9.62,9.62,0,0,1-1.15-3.84c-.84-10.72-1.46-21.45-2.48-32.16-.69-7.26-1.84-14.48-3-21.7-.15-.94-1.58-1.71-2.41-2.56-.83.87-1.71,1.7-2.47,2.61-.22.27-.14.74-.19,1.12q-2.64,21.51-5.3,43a22.34,22.34,0,0,1-.77,2.94,2,2,0,0,1-.79-1.41c-1-8.07-1.92-16.16-3.06-24.21A80.69,80.69,0,0,0,146,250.87a3.88,3.88,0,0,0-2.66-2.21c-.66-.11-2.06,1.22-2.39,2.12a58.29,58.29,0,0,0-2.3,8.24c-1,5.12-1.84,10.28-2.79,15.42-.32,1.74-.77,3.45-1.16,5.18H134a13.21,13.21,0,0,1-.7-1.83c-1-4.74-1.9-9.5-3-14.21a25.26,25.26,0,0,0-2.21-6.09c-1.1-2.08-3.48-2.08-4.75-.07a18.23,18.23,0,0,0-1.77,4.28c-1.18,3.67-2.23,7.37-3.41,11a19.79,19.79,0,0,1-1.65,2.88c-.87-2-1.48-3.32-2-4.66-.87-2.23-1.6-4.52-2.55-6.72-.69-1.61-1.84-3.48-3.9-3-1.51.35-2.93,1.85-3.89,3.14a59,59,0,0,0-3.34,5.91c-1,1.83-2,1.86-3.28.18-.83-1.15-1.66-2.3-2.52-3.43-2.87-3.75-5.78-3.86-9-.35-2.94,3.25-4.68,3.57-8.33,1a7.91,7.91,0,0,0-9.18-.41c-2.88,1.73-5.5,1.58-8.38.49a14.76,14.76,0,0,0-9.18-.33,16.16,16.16,0,0,1-6.22.63,64.45,64.45,0,0,0-12.34-.47c-9.05.27-18.11,0-27.16,0v2.77c1.68,0,3.37.09,5.06.08,9-.07,17.91-.18,26.86-.22,1.42,0,2.85.32,4.27.37,2.86.11,5.91.73,8.54.05a21.1,21.1,0,0,1,11.61.49,10.56,10.56,0,0,0,7-.39c3.31-1.8,5.75-1.75,8.74.34,3.93,2.76,5.67,2.54,9.3-.51A21.19,21.19,0,0,0,89,268.25c1.11-1.3,1.78-1.17,2.83.18a49.7,49.7,0,0,0,5.46,6,2.71,2.71,0,0,0,4.34-.37c1.6-2.22,3-4.54,4.52-6.83.58-.91,1.07-1.87,1.95-3.42.82,1.73,1.35,2.67,1.73,3.66.88,2.31,1.55,4.69,2.57,6.94a12,12,0,0,0,2.66,3.85c1.67,1.56,3.49,1.2,4.33-.82,1.49-3.58,2.83-7.21,4.1-10.86.7-2,1.13-4,1.68-6.07l.67,0a11.66,11.66,0,0,1,.82,2c.78,3.68,1.35,7.41,2.26,11.07a85.33,85.33,0,0,0,3.14,9.93,3.56,3.56,0,0,0,2.74,1.51c.78,0,1.82-1,2.27-1.79a13.22,13.22,0,0,0,1.56-4.12c1.29-6.79,2.46-13.61,3.69-20.41.23-1.24.59-2.46.88-3.69l.64,0c.3,1.46.72,2.92.9,4.4,1,7.93,1.92,15.87,3,23.8a48,48,0,0,0,1.66,8.14,4.55,4.55,0,0,0,2.74,2.78c2,.38,2.51-1.44,2.94-2.85a21.31,21.31,0,0,0,.73-3.62c1.34-11.22,2.65-22.43,4-33.65.26-2.15.64-4.3,1-6.44A4.67,4.67,0,0,1,162,250.4c1,11.78,1.89,23.57,3,35.35.59,6.35,1.41,12.68,2.37,19,.15,1,1.61,1.86,2.47,2.79.8-.9,2-1.7,2.33-2.73a26.5,26.5,0,0,0,1.11-6.12c1.28-15.85,2.47-31.71,3.73-47.56.36-4.57.85-9.13,1.28-13.69h.8c.12.95.29,1.89.35,2.84.92,14.33,1.8,28.66,2.73,43q1.2,18.18,2.5,36.35a8.82,8.82,0,0,0,.89,3.33,1.88,1.88,0,0,0,3.48,0,5.88,5.88,0,0,0,.71-2.19c.52-4.19,1.18-8.39,1.42-12.61.78-13.94,1.32-27.9,2.1-41.85.75-13.43,1.68-26.85,2.54-40.27a9.18,9.18,0,0,1,.33-1.52,187.91,187.91,0,0,1,1.68,18.92q1.28,28,2.42,56c.47,11.13.85,22.27,1.41,33.39a48.21,48.21,0,0,0,1.32,8.42c.18.76,1.36,1.32,2.08,2,.62-.65,1.57-1.22,1.81-2,.51-1.61.56-3.34,1-5a21.51,21.51,0,0,1,1.17-3,32,32,0,0,1-.45-3.64c0-.91.34-1.82.37-2.73.92-27.34,1.77-54.68,2.74-82,.38-10.6,1-21.19,1.53-31.78a5.36,5.36,0,0,1,.33-1.13,47,47,0,0,1,1.17,9.2q1,25.32,2,50.64c.4,10.68.69,21.36,1.06,32,.52,15.28,1,30.55,1.66,45.81a93.16,93.16,0,0,0,1.22,10.77c.12.73,1.28,1.33,2,2,.61-.63,1.48-1.19,1.77-1.93a11.69,11.69,0,0,0,.7-3.62c.55-9,1.22-17.93,1.51-26.9.71-21.57,1.18-43.15,1.84-64.72.58-19.29,1.28-38.57,2-57.85.09-2.59.32-5.18.48-7.77h.8c.13,2.64.28,5.27.38,7.9.76,21.58,1.57,43.15,2.23,64.73s1.13,43.46,1.79,65.19c.34,11.29.91,22.58,1.43,33.87a32.93,32.93,0,0,0,.74,5.94c.17.74,1.16,1.32,1.78,2,.65-.59,1.53-1.08,1.91-1.79a6.64,6.64,0,0,0,.53-2.7c.73-15.1,1.63-30.2,2.11-45.31.67-21.27,1-42.55,1.5-63.82q.57-24.33,1.15-48.64c.12-4.6.31-9.2.5-13.8.26-6.32.55-12.63.82-18.95.85,8.13,1.17,16.24,1.42,24.36q1.16,38.13,2.25,76.27c.47,17,.78,34.08,1.24,51.12q.56,20.4,1.32,40.79c.15,3.84.55,7.67,1.08,11.47.11.82,1.26,1.52,1.94,2.27.66-.86,1.73-1.65,1.89-2.58a60.1,60.1,0,0,0,.76-8c.67-17.33,1.39-34.67,1.87-52,.58-20.81.93-41.62,1.4-62.44q.85-37.56,1.75-75.11c.11-5,0-9.94,0-14.9h.88c.07.75.18,1.5.21,2.26.49,15,1,29.94,1.45,44.92.51,17.35.93,34.71,1.39,52.06.62,23.73,1.18,47.45,1.86,71.17.41,14.21,1,28.42,1.52,42.63a21.85,21.85,0,0,0,.82,5,2.29,2.29,0,0,0,1.66,1.36,2.41,2.41,0,0,0,1.73-1.35,14.38,14.38,0,0,0,.65-3.86c.72-12.2,1.54-24.39,2.05-36.59.38-9,.32-17.95.51-26.93q.63-31.11,1.32-62.22c.47-19.58,1.07-39.16,1.55-58.75.17-7.29.11-14.59.25-21.88.05-2.23.38-4.46.59-6.7a4,4,0,0,1,.7,2.45q.39,14.61.76,29.23.87,32.72,1.76,65.44t1.75,65.41c.38,14.52.73,29,1.17,43.56a40.28,40.28,0,0,0,.86,7.09c.16.79,1.22,1.42,1.87,2.12.68-.66,1.81-1.24,2-2a46.45,46.45,0,0,0,1-7.77c.69-17.16,1.43-34.32,1.88-51.49.69-26.42,1.13-52.85,1.74-79.27q.8-34.45,1.73-68.9c.05-1.88.25-3.76.38-5.63a5.92,5.92,0,0,1,.52,2.53q.42,14,.82,28.09,1.1,38.7,2.16,77.41c.43,16.13.75,32.26,1.2,48.38.19,6.44.63,12.88.89,19.32.37,9.22.62,18.44,1.08,27.66,0,.91,1.14,1.78,1.75,2.67.78-.77,2-1.44,2.24-2.33a37.46,37.46,0,0,0,1-7.07c.74-15.41,1.57-30.81,2.07-46.22.67-20.65,1.09-41.3,1.6-62q.47-19.12.9-38.27.3-12.42.64-24.85c.14-4.62.36-9.24.54-13.86a5,5,0,0,1,.91,2.88q.31,8.85.58,17.71c.62,21.34,1.19,42.68,1.88,64q1.17,35.69,2.53,71.37c.29,7.68.79,15.36,1.19,23,.05,1.1.33,2.22,1.77,1.92.78-.15,1.38-1.12,2-1.78.17-.2.08-.6.1-.91.86-12.39,2.07-24.77,2.52-37.17,1.11-30.87,1.85-61.75,2.77-92.63.27-9.3.61-18.59.95-27.89a25.75,25.75,0,0,1,.49-3.11l.79.06c.08.72.23,1.44.25,2.16.72,21.34,1.31,42.69,2.16,64,.9,22.55,2,45.09,3.1,67.62.16,3.3.54,6.6,1,9.87a2.86,2.86,0,0,0,1.7,2c1.67.4,1.82-1,1.93-2.05.41-3.82.66-7.66,1.16-11.48a34.52,34.52,0,0,1,1.3-4.87c-.54-8,.62-15.83.71-23.69s.42-15.83.69-23.74.63-15.95.91-23.93.52-15.82.81-23.73.61-15.8.91-23.69h.8c.22,2.67.53,5.33.63,8,.67,16.74,1.24,33.47,2,50.2.46,11,1,22,1.73,32.93.58,8.36,1.48,16.69,2.48,25,.2,1.63,1.51,3.14,2.31,4.7l1.11-.26c.12-1.61.23-3.23.34-4.84,1.46-21.54,3-43.08,4.35-64.62.68-10.74,1-21.5,1.57-32.24a53.51,53.51,0,0,1,.78-5.31,1.42,1.42,0,0,1,.62,1.19c.81,14.64,1.58,29.28,2.44,43.92.5,8.67,1,17.34,1.75,26a138,138,0,0,0,2,13.68c.15.81,1.45,1.43,2.21,2.14.71-.82,2-1.61,2-2.48,1.86-20.67,3.6-41.34,5.35-62,.29-3.41.53-6.82.8-10.23l.74,0c.26,2.26.63,4.51.78,6.77.53,7.51.9,15,1.48,22.53q.64,8.27,1.68,16.52c.5,4,1.18,8.06,2.07,12,.22,1,1.56,1.74,2.38,2.61.87-.92,2.18-1.73,2.51-2.78a35.84,35.84,0,0,0,1-6.37q2.21-18,4.38-35.93l.54-4.42.89,0c.37,2.27.79,4.53,1.12,6.81,1.31,9.27,2.53,18.56,3.94,27.82.25,1.63.53,3.9,3,4,2.75.1,3-2.33,3.33-4,1.28-5.79,2.26-11.62,3.41-17.43.65-3.27,1.42-6.51,2.14-9.77l.68,0a17.29,17.29,0,0,1,.85,2.34c.81,3.75,1.45,7.52,2.34,11.26A62.14,62.14,0,0,0,431,280.2a3.42,3.42,0,0,0,2.53,1.83c1,0,2-1.09,2.89-1.83a3,3,0,0,0,.7-1.46c1.11-3.69,2.13-7.39,3.3-11.07.48-1.52,1.25-3,1.88-4.44l.95.09c.59,1.55,1.15,3.13,1.79,4.67a53.43,53.43,0,0,0,3.18,7.22c1.51,2.54,4.25,2.53,6.09.15a33.58,33.58,0,0,0,1.93-3.48c1.14-1.91,2.35-3.78,3.84-6.15,1.64,2.07,2.92,3.64,4.14,5.25,2.93,3.86,5.81,4,9.11.46,3.08-3.32,4.71-3.61,8.47-.87a7.77,7.77,0,0,0,9.17.36,8.19,8.19,0,0,1,8.1-.52c3.14,1.26,6.19.91,9.43.4a59.74,59.74,0,0,1,9-.31c2.43,0,4.87.24,7.31.22,3.2,0,6.4-.26,9.6-.29,7.53-.06,15.05-.05,22.58-.07v-2.77Z"/></g><path class="cls-3" d="M357.23,235.18c-4.88-7.13-11.39-12.48-18.42-17.4s-14.22-9.57-19.63-16.24c-4.85-6-7.75-13.65-6-21.35a16.24,16.24,0,0,1,5.44-9c2.47-2,5.3-3.52,7.78-5.5,1.7-1.36,4-3.44,3.21-5.88-.48-1.56-1.76-1.81-3.22-2.06a19,19,0,0,0-4.7-.26,22.87,22.87,0,0,0-16.83,9.49,20.56,20.56,0,0,0-2.18,4.05c-.05.1-.08.19-.12.28a.64.64,0,0,0-.05.23A46.69,46.69,0,0,0,305,201.75a45.38,45.38,0,0,0,8.34,12.85,62.79,62.79,0,0,0,12.76,10.07c9.59,6.06,19.67,11.39,25.82,21.34,5.77,9.33,7.91,20.61,7.12,31.48a75.88,75.88,0,0,1-5.66,23c.19-.83.34-1.66.46-2.5a78.87,78.87,0,0,0,.23-18,.5.5,0,0,0,0-.12s0,0,0,0a42,42,0,0,0-30.17-38.6c-5.87-1.73-11.8-1.86-17.86-1.49-6.9.41-14.29,1.19-20.56-2.32a.84.84,0,0,0-.23-.09l-.06,0c-8.07-3.08-18.84-7.57-19.55-17.63-.44-8.05-1-16.18-5-23.39-4.35-7.88-11.56-12.77-19.06-17.35a3.46,3.46,0,0,0-.22-.31c-1.12-3.44-2-7.09-4.09-10.1a17,17,0,0,0-8.44-6.7,1.36,1.36,0,0,0-.42-.07.91.91,0,0,0-.46.05,5.31,5.31,0,0,0-2.2,1.6,7.68,7.68,0,0,0-1,1.33,21.56,21.56,0,0,0-6.69-.59l-.23,0h-.05a1,1,0,0,0-.87,1.09c.08,2.63-.06,5.26,0,7.9.05,2.4-.13,5.39-2.31,6.9-2.43,1.3-4.22,3.55-6,5.57a35.46,35.46,0,0,0-5.24,7.2,31.61,31.61,0,0,0-3.2,15.6,22.82,22.82,0,0,1-5,10.37,1.28,1.28,0,0,0-.32.93s0,0,0,.06c-1.85,6.8,2.85,12.78,8.29,16.23,5.29,3.34,12,6.31,18.38,5.19-1.07,12.54,6.47,23.54,15.16,32,4.71,8.9,6.24,19,6.61,28.93.38,10.38-.24,20.82-.57,31.21L237.23,340c-1.5,1.88-3,4.46-1.24,6.69,1.26,1.59,3.56,1.89,5.46,1.84a85.31,85.31,0,0,0,8.6-.62c2.75-.35,5.58-1.85,5.73-4.94v-.07c1-10.72,3.09-21.26,5-31.86a38.68,38.68,0,0,0,11.32,12.59,35.41,35.41,0,0,0,18.58,6.23,16.28,16.28,0,0,1,3.18,5c.3.78,1.08,2.49.47,3.17s-2.25.87-3.07,1.2c-2.68,1.1-8.28,3.34-6.91,7.26,1.22,3.46,6.74,2.41,9.45,2.45,4.77.1,9.53.49,14.31.57a56.68,56.68,0,0,0,14.41-1.34,1.06,1.06,0,0,0,.63-.13s0,0,.05,0l.57-.15a1,1,0,0,0,.73-.66c3.57-2.42,6.43-6.21,9.09-9.46a122.82,122.82,0,0,0,8.81-12.18c.44-.7.88-1.41,1.31-2.13a1.09,1.09,0,0,0,1.19-.23,72.27,72.27,0,0,0,22.24-42.07C369.47,265.33,366.35,248.5,357.23,235.18Z"/><path d="M309.58,351.77H308c-2.51,0-5.05-.17-7.5-.29-2.24-.12-4.56-.23-6.81-.28-.45,0-1,0-1.58.05-3.13.15-8.37.4-9.91-4-2.05-5.85,5.3-8.86,8.06-10l.11,0a11.56,11.56,0,0,1,1.22-.38l.52-.15c-.09-.27-.2-.55-.26-.7l-.12-.3a13.42,13.42,0,0,0-2.19-3.7,37.47,37.47,0,0,1-18.78-6.56,39.53,39.53,0,0,1-8.85-8.58c-1.54,8.56-3.12,17.39-4,26.16v.05c-.18,3.7-3.18,6.46-7.65,7a88.45,88.45,0,0,1-8.83.64c-3.32.11-5.76-.82-7.24-2.68s-2.37-4.9,1.25-9.44c1.59-2,3.19-3.95,4.78-5.92l.17-.2c.07-2.07.14-4.13.22-6.2.31-7.93.62-16.12.33-24.12-.43-11.55-2.4-20.35-6.2-27.67-10.4-10.19-15.67-20.56-15.68-30.88-5.19.15-11-1.79-17.25-5.77-5.85-3.71-11.34-10.49-9.29-18.47a3.53,3.53,0,0,1,.86-2.06,20.65,20.65,0,0,0,4.48-9.11,33.93,33.93,0,0,1,3.44-16.41,37.79,37.79,0,0,1,5.56-7.66l.7-.79a22.23,22.23,0,0,1,5.79-5.19c1.2-.91,1.32-3,1.29-5,0-1.24,0-2.46,0-3.69,0-1.44,0-2.81,0-4.18a3.19,3.19,0,0,1,1.87-3.07l.29-.29h.71l.16,0h.16a23.3,23.3,0,0,1,5.87.33l.26-.3a7.43,7.43,0,0,1,3.15-2.26,3.17,3.17,0,0,1,1.33-.16,3.34,3.34,0,0,1,1.06.22,19,19,0,0,1,9.47,7.51,31.93,31.93,0,0,1,3.8,8.88l.39,1.22c7.31,4.49,14.75,9.61,19.29,17.83,4.06,7.36,4.79,15.38,5.28,24.34.58,8.18,9.4,12.33,17.76,15.54h.16l.35.19a3.21,3.21,0,0,1,.46.22c5.23,2.92,11.62,2.51,17.8,2.12l1.54-.09c5.12-.31,11.87-.41,18.61,1.57a45.22,45.22,0,0,1,15.79,8.38,44.6,44.6,0,0,1,15.91,31.43l.46.5c.07-.68.13-1.36.18-2,.81-11.06-1.61-21.78-6.8-30.16-5.09-8.23-13-13.13-21.4-18.32-1.24-.76-2.49-1.53-3.72-2.31a65.12,65.12,0,0,1-13.2-10.44A47.51,47.51,0,0,1,303,202.63a49.06,49.06,0,0,1-2.59-31.54,2.72,2.72,0,0,1,.21-.69c0-.07.07-.18.12-.3a23.5,23.5,0,0,1,2.38-4.42,25,25,0,0,1,18.5-10.42,20.61,20.61,0,0,1,5.24.28c1.51.26,4.05.7,4.94,3.58,1.27,4.1-2.52,7.11-3.94,8.25s-2.64,1.92-3.95,2.79-2.63,1.75-3.81,2.71a13.89,13.89,0,0,0-4.69,7.82c-2,8.56,2.6,15.87,5.52,19.46,4.63,5.71,10.88,10,16.92,14.24l2.27,1.58c6.35,4.46,13.57,10.07,19,18h0c9,13.21,12.78,30.54,10.24,47.56a74.13,74.13,0,0,1-22.92,43.37,3.38,3.38,0,0,1-1.43.79l-.72,1.14a122.5,122.5,0,0,1-9,12.39l-.9,1.11c-2.34,2.89-5,6.15-8.21,8.47a3.26,3.26,0,0,1-1.81,1.27l-.43.11a3.23,3.23,0,0,1-1.17.28A56.31,56.31,0,0,1,309.58,351.77Zm-16-5h.21c2.33.05,4.68.16,6.95.28s4.91.25,7.36.29A54.31,54.31,0,0,0,322,346.07l.38-.09h0l.24-.06,0-.09.6-.41c2.89-2,5.34-5,7.7-7.91l.92-1.13a118.68,118.68,0,0,0,8.65-12c.44-.69.87-1.38,1.29-2.09l1-1.61,1.1.44a69.72,69.72,0,0,0,21.06-40.32c2.37-15.93-1.1-32.12-9.52-44.42h0c-5-7.3-11.84-12.61-17.86-16.84L335.3,218c-6.3-4.37-12.81-8.89-17.83-15.09-5.92-7.29-8.19-15.54-6.39-23.24a18.2,18.2,0,0,1,6.2-10.25c1.34-1.09,2.77-2,4.15-3s2.5-1.65,3.64-2.56c1.92-1.53,2.73-2.68,2.47-3.5-.06-.2-.09-.3-1.49-.54a16.64,16.64,0,0,0-4.15-.22,20.56,20.56,0,0,0-15.2,8.55,19.06,19.06,0,0,0-1.94,3.62l-.08.23A44.55,44.55,0,0,0,307,200.88a43.15,43.15,0,0,0,7.93,12.22,60.89,60.89,0,0,0,12.33,9.71c1.22.77,2.45,1.53,3.68,2.29,8.45,5.23,17.2,10.63,22.83,19.75s8.32,20.82,7.45,32.8a77.5,77.5,0,0,1-5.81,23.63l-4.2-1.31c.16-.71.3-1.48.43-2.35a75.56,75.56,0,0,0,.26-16.91l0,0,0-.49-.3-.95.23-.24a40.72,40.72,0,0,0-14.3-28.15,41.3,41.3,0,0,0-14.24-7.57c-4.81-1.41-9.92-1.83-17.1-1.4l-1.52.09c-6.43.41-13.71.87-20.05-2.57l-.21-.1c-7.53-2.87-20.12-7.69-20.95-19.52-.46-8.45-1.13-15.94-4.74-22.48-4.14-7.49-11-12.1-18.28-16.54l-.41-.25-.27-.41-.12-.17-.24-.31-.13-.37c-.19-.6-.39-1.22-.58-1.83a28.26,28.26,0,0,0-3.23-7.7,14.91,14.91,0,0,0-7-5.76,3.72,3.72,0,0,0-1,.84,6,6,0,0,0-.68.94l-.81,1.49-1.65-.41a20,20,0,0,0-5.08-.57c0,1.11,0,2.22,0,3.29s0,2.36,0,3.55c0,1.92.12,6.42-3.27,8.76l-.22.13a18.32,18.32,0,0,0-4.69,4.28l-.71.81a33.52,33.52,0,0,0-4.93,6.74,29.5,29.5,0,0,0-3,14.49l0,.26-.06.27A25,25,0,0,1,197,219.92l.07.66-.33.3c-1.15,5.53,3,10.44,7.47,13.25,6.44,4.07,12.1,5.71,16.81,4.88l2.83-.5-.25,2.86c-.84,9.88,4,20.05,14.51,30.21l.25.24.16.31c4.23,8,6.41,17.48,6.87,29.87.29,8.17,0,16.45-.33,24.46-.09,2.3-.17,4.61-.25,6.91l0,.74-1.1,1.36-4.77,5.9c-2.18,2.74-1.49,3.61-1.23,3.94.55.69,1.85,1,3.67,1,3-.07,5.79-.28,8.38-.6.86-.11,3.66-.64,3.8-2.83v-.21c.88-9.16,2.53-18.3,4.12-27.14.29-1.63.59-3.26.88-4.89l1.06-6,3,5.29a36.23,36.23,0,0,0,10.67,11.87,33.22,33.22,0,0,0,17.43,5.84l.9.05.61.66a18.43,18.43,0,0,1,3.62,5.75l.1.25c.49,1.24,1.41,3.56-.05,5.18a6.42,6.42,0,0,1-3.15,1.56,6.24,6.24,0,0,0-.74.21c-3,1.23-6.24,2.81-5.65,4.49.45,1.27,3.51,1.13,5.54,1C292.54,346.8,293.11,346.77,293.6,346.77Zm29.51-1h0Zm33.21-65.23c0,.3.05.61.07.92l.15-1.17ZM196.79,220.2h0Zm107.87-48.13,0,.07Zm-85.53-6.92h0Zm9-1.29,0,0Zm.61-.05-.05,0Z"/></svg>